<?xml version="1.0" encoding="UTF-8" standalone="no"?>
<svg
   viewBox="0 0 512 512"
   version="1.1"
   id="svg1"
   sodipodi:docname="cross_mark.svg"
   inkscape:version="1.4 (e7c3feb100, 2024-10-09)"
   xmlns:inkscape="http://www.inkscape.org/namespaces/inkscape"
   xmlns:sodipodi="http://sodipodi.sourceforge.net/DTD/sodipodi-0.dtd"
   xmlns="http://www.w3.org/2000/svg"
   xmlns:svg="http://www.w3.org/2000/svg">
  <defs
     id="defs1" />
  <sodipodi:namedview
     id="namedview1"
     pagecolor="#ffffff"
     bordercolor="#000000"
     borderopacity="0.25"
     inkscape:showpageshadow="2"
     inkscape:pageopacity="0.0"
     inkscape:pagecheckerboard="0"
     inkscape:deskcolor="#d1d1d1"
     inkscape:zoom="1.6289062"
     inkscape:cx="255.69305"
     inkscape:cy="256"
     inkscape:window-width="1920"
     inkscape:window-height="1050"
     inkscape:window-x="0"
     inkscape:window-y="0"
     inkscape:window-maximized="1"
     inkscape:current-layer="svg1" />
  <!--!Font Awesome Free 6.7.2 by @fontawesome - https://fontawesome.com License - https://fontawesome.com/license/free Copyright 2025 Fonticons, Inc.-->
  <!--!Font Awesome Free 6.7.2 by @fontawesome - https://fontawesome.com License - https://fontawesome.com/license/free Copyright 2025 Fonticons, Inc.-->
  <path
     d="m 256,48 a 208,208 0 1 1 0,416 208,208 0 1 1 0,-416 z m 0,464 a 256,256 0 1 0 0,-512 256,256 0 1 0 0,512 z M 175,175 c -9.4,9.4 -9.4,24.6 0,33.9 l 47,47 -47,47 c -9.4,9.4 -9.4,24.6 0,33.9 9.4,9.3 24.6,9.4 33.9,0 l 47,-47 47,47 c 9.4,9.4 24.6,9.4 33.9,0 9.3,-9.4 9.4,-24.6 0,-33.9 l -47,-47 47,-47 c 9.4,-9.4 9.4,-24.6 0,-33.9 -9.4,-9.3 -24.6,-9.4 -33.9,0 l -47,47 -47,-47 c -9.4,-9.4 -24.6,-9.4 -33.9,0 z"
     id="path1"
     style="fill:#d40000" />
</svg>
